PathFileType	4	(X/Y/Z)	72_2_78_p1_0-253.trc
DataRate	CameraRate	NumFrames	NumMarkers	Units	OrigDataRate	OrigDataStartFrame	OrigNumFrames
59.0	59.0	6	27	m	59.0	31	254
Frame#	Time	RHip			RKnee			RAnkle			RBigToe			RSmallToe			RHeel			LHip			LKnee			LAnkle			LBigToe			LSmallToe			LHeel			Neck			Head			Nose			RShoulder			RElbow			RWrist			RThumb			RIndex			RPinky			LShoulder			LElbow			LWrist			LThumb			LIndex			LPinky			
		X1	Y1	Z1	X2	Y2	Z2	X3	Y3	Z3	X4	Y4	Z4	X5	Y5	Z5	X6	Y6	Z6	X7	Y7	Z7	X8	Y8	Z8	X9	Y9	Z9	X10	Y10	Z10	X11	Y11	Z11	X12	Y12	Z12	X13	Y13	Z13	X14	Y14	Z14	X15	Y15	Z15	X16	Y16	Z16	X17	Y17	Z17	X18	Y18	Z18	X19	Y19	Z19	X20	Y20	Z20	X21	Y21	Z21	X22	Y22	Z22	X23	Y23	Z23	X24	Y24	Z24	X25	Y25	Z25	X26	Y26	Z26	X27	Y27	Z27	
31	0.5254237288135594	0.21935876219055317	0.5802147016800738	0.6415904172111516	0.2249114926154874	0.6118585200176352	1.0561448820047348	0.21615730715341205	0.6683930801759048	1.455738527171247	0.1436306822873566	0.41669807715216295	1.4398290707894517	0.2285034752944686	0.4289311771226575	1.431647084902066	0.20172269389672084	0.7519952115690538	1.534513628028753	-0.006745493694773069	0.6268522455586931	0.6429067654827837	-0.01445110239612488	0.6382894063234917	1.0439413511082873	-0.007925752334852475	0.6577221463306109	1.4303359886590998	-0.010508640515287618	0.44772266564600305	1.4400251902150523	-0.06490836481466872	0.5228807493383305	1.4616098116456275	0.015033216514683827	0.7237604807560762	1.4873331192848336	0.1068163234246176	0.61989410294383	-0.008490045175592301	0.10435995779304075	0.5795237159060265	-0.2711910159704078	0.06904927144439718	0.4536030364445302	-0.14061989534512645	0.2889304797987028	0.5718340284894368	0.08773010253152516	0.34822593396668056	0.5267389723544654	0.348067044929137	0.16967957881159365	0.4056420157549667	0.48042667582615406	0.0550116656942143	0.4166174887650384	0.5188426651652869	0.050247089151639376	0.41372731920498057	0.5543891262189863	0.07399963661254044	0.42742632214499365	0.599051440756995	-0.06848789902008784	0.6283788925617293	0.07610217135919631	-0.12510538861499387	0.6217277681137868	0.36304652448947633	-0.0062997291801464225	0.44590916094768573	0.5106359975490213	0.08073961178073785	0.4140000219474414	0.5179063207939694	0.08231928684890927	0.4127776763448503	0.5635265992486521	0.07329880689212358	0.4165255079436725	0.6000469329216173
32	0.5423728813559322	0.21942361738453955	0.5799641013311571	0.6414515795052119	0.2250299962799295	0.6116757071040209	1.0560484471504592	0.21619630102185924	0.6684092058725098	1.4554767154259693	0.14423851885976666	0.4170787399650592	1.4398357483451971	0.22891687893999277	0.42931192138349056	1.4314312818733292	0.20166580956514646	0.7519900947940835	1.5340640010712523	-0.010236108110243043	0.6260564932616624	0.6387446457121105	-0.012819686541514061	0.6395048290955018	1.0451494380524566	-0.007925667141656377	0.6578894441937841	1.4304930753392093	-0.010478195714385418	0.44768117723800593	1.4398388244672875	-0.06258175394142322	0.5089888331509385	1.4574591192419852	0.012159161782568043	0.7420746645568528	1.4970391834192716	0.10685121866475839	0.6199630119444997	-0.008497187539210097	0.10659675487165984	0.5665816456895618	-0.271239629813246	0.06906521267892068	0.45364380829156636	-0.1406634620771064	0.2892686305334329	0.5724373004764715	0.08379607768561878	0.3486161335405762	0.5270395579089869	0.3447873948389882	0.16984572984541993	0.40543307439201887	0.4802667240210562	0.057600137758251374	0.4046851685675574	0.518966066941115	0.050888902574747534	0.413536162122554	0.5623885252713358	0.07416033467651977	0.42773837809293686	0.5992211907072579	-0.06856722578143667	0.6283280665869753	0.07610722591964054	-0.1251166720626287	0.6216482269392053	0.362966781300998	-0.006345492592370585	0.4459659248011205	0.5106281048007092	0.0805820972295688	0.41331278869223265	0.5178618745062499	0.08232846069950411	0.41303565966051575	0.5714118416785164	0.0732368046386548	0.41650122141829327	0.6001314483541164
33	0.559322033898305	0.21936009534612352	0.5810184000585709	0.6378021833106139	0.22493231254168483	0.6118076161601578	1.0561188584491181	0.21489249088508178	0.6663888339470919	1.4493302337880611	0.14449176741664546	0.41818266604173	1.4455330791471124	0.2284051462330206	0.42901462680136215	1.431828686149366	0.1965053509683846	0.7507693557936223	1.5389506412517455	-0.011516356382205873	0.6152881795371893	0.6355683357935777	-0.012908961441983903	0.6407140254198208	1.0413639097008824	-0.007938175864944049	0.658000920717105	1.4303821275395605	-0.010471694512367841	0.4479122785095359	1.4401579093739847	-0.06484404784262325	0.5231275811031406	1.4617596030287552	0.012004787554882471	0.742021242798279	1.4975587028802029	0.10682656011188803	0.6199169717330127	-0.008491413626602556	0.10653428113628745	0.5664326425581662	-0.2712132813038704	0.06908491269859027	0.45363156214466066	-0.14062551949398552	0.28896408110742666	0.5720120263926624	0.08774987707278185	0.34985164954586806	0.5130923377148104	0.3418122863322062	0.17003936790220298	0.40513792277085614	0.4799694915450282	0.05766662989537687	0.40300470800757665	0.5199188707827809	0.05791357992321794	0.40110202247845095	0.5632923737368805	0.07659347699195866	0.41561064167791323	0.5953435940043316	-0.06854731787400137	0.6287446148808026	0.07618942462665597	-0.12900343992111202	0.6097911547103791	0.3603382995662306	-0.010735131429669392	0.4354369737216919	0.5074549026011235	0.07730337983325603	0.4121901865293061	0.5203939420301594	0.079590285752486	0.3988322108794774	0.5632043578338061	0.06896416912886305	0.4146846323622121	0.5993510509112585
34	0.576271186440678	0.21948721178578842	0.5799502171314945	0.6414343041287607	0.2249592077559199	0.6119760283448317	1.0562310253006535	0.21490463144985703	0.6664911267185543	1.4495910419514657	0.14376579755431534	0.41749390208117165	1.44018122620138	0.22349197489829517	0.4187855486513537	1.4250515033109787	0.20042850256970574	0.7517867228884259	1.539751984075726	-0.014914829593975174	0.6136390954045674	0.6350488464367793	-0.012868064999183701	0.6396843997005501	1.0453929792536256	-0.007932691449084666	0.6579185579958107	1.4303505032196642	-0.010559445717797074	0.44777792950872364	1.440120184659801	-0.06590155863943208	0.5234459635362689	1.4660863549902705	0.012027554538534248	0.7418871056516048	1.4972988994264091	0.10684921669202561	0.6199956807289201	-0.008485294412661479	0.10654344886942187	0.5664028474601297	-0.2712236352364976	0.06908220510565657	0.45364071753576907	-0.14063995924598327	0.28949705403721465	0.5729725533175378	0.09102673278418869	0.3480642539065222	0.5261073857815608	0.3404817589601843	0.17423972146857836	0.4057429684600956	0.480143511326445	0.06203534668353569	0.41365768939755876	0.5229074476290274	0.05748843953336079	0.39997002231294015	0.5592798540854795	0.07643806635901028	0.41526450769933	0.5950681855295293	-0.06839082773125388	0.6291215524316509	0.07620331444734409	-0.12905789199375065	0.6098409196164383	0.3602697652771597	-0.010793197493509179	0.43521541826814314	0.5075264815024156	0.08010535317857567	0.40049159684641156	0.5169861285099437	0.07915609565776638	0.3981028763849932	0.5590274230500996	0.06911374280247319	0.4150255853629498	0.5997483689249007
35	0.5932203389830508	0.21893565177270963	0.5809811889721345	0.6414348115553552	0.22415538519191464	0.611659503029934	1.0603907027785648	0.215183197478795	0.668291557102806	1.4605857595451515	0.14438491825026756	0.4174125167758227	1.445192169887502	0.22810200650370951	0.42687676017150517	1.435412030625884	0.19927411668097875	0.7516894693263136	1.5460921463381394	-0.01149417183463745	0.6153187017306858	0.6355609243756338	-0.010706987867731355	0.6265662522830806	1.039453018853366	-0.007952357776675164	0.657866373635351	1.4304083615951033	-0.01053188888510545	0.4476459906762419	1.4399343780796188	-0.06260175264688005	0.5089397687831652	1.4574325629229945	0.010798880202725623	0.7421511925275122	1.5030203166044656	0.10692205255528389	0.6200019621609614	-0.008461529917803329	0.10654672474315101	0.5663613191236327	-0.27123455613512304	0.06908106106322631	0.45363546429900736	-0.14063375283384053	0.28941567717237665	0.5728408451776984	0.09100510444303889	0.34935215147424414	0.5123344384383871	0.3376035034345641	0.17496423843055028	0.4066382072605161	0.4842816669747578	0.06418479088732747	0.40179045352783477	0.5228406412999984	0.057245524957862205	0.3991952890857332	0.5627116690774617	0.07597409297050253	0.4145790963017245	0.5909302622357004	-0.06821690027400641	0.6287183413530982	0.0762145634350862	-0.12514170882418676	0.6217911679383235	0.3629187828863969	-0.010891508123551776	0.4351001359681833	0.5075241789959525	0.07433594803875504	0.38895130671193295	0.5171515809211419	0.07456309994635804	0.38701649135789357	0.5556925113406328	0.06909068466531865	0.41471140075961455	0.5999179487822568
36	0.6101694915254238	0.22350565640670586	0.5816571709462042	0.6383173318659754	0.2248662493731373	0.6118846835935592	1.056075504721536	0.21528999941914304	0.6666228329439612	1.4639469262381744	0.14010776587113846	0.40549753773180297	1.4373996567314238	0.22331244460455804	0.41691837427396855	1.4242529399862196	0.20076326131268615	0.7521816870171928	1.5551475886943222	-0.010237818185653275	0.6167948357522034	0.6369437851132836	-0.00985824729898448	0.6250630964207269	1.0390569951500563	-0.008000939233626048	0.6577002923832934	1.4304294499349088	-0.010506639609235651	0.44767242718681294	1.439624460696863	-0.06249175674836069	0.5088902478800613	1.457202525872604	0.010855613516712033	0.7403327759429992	1.507033706214803	0.10681238388441407	0.6200055061202824	-0.008451489502579705	0.10654629675545774	0.5662381969913364	-0.27119869991810835	0.06917583737869383	0.4531740492508932	-0.13719020279082245	0.2848858427012875	0.5717061831778345	0.08320580919605086	0.35310374570377023	0.5262883180525716	0.3443884755128289	0.17494389132156096	0.4066444672019079	0.4846165199203016	0.0622116141829191	0.4130489988585702	0.5304197324558155	0.05787256934727048	0.40045004168922893	0.5669305424647872	0.0768366189333411	0.4155477280344659	0.595284199353949	-0.06853572980391373	0.6275920726349208	0.06862678610723105	-0.1251240398592978	0.6219697782259749	0.362909395561602	-0.01575019481103797	0.43329276398825584	0.5105412233214738	0.07416112986613689	0.3888823844841383	0.5174398622390731	0.07337393835982976	0.38570495398714927	0.5548085351307408	0.06831228469301004	0.4141230532744629	0.5960110649549576
